<svg xmlns="http://www.w3.org/2000/svg" width="20" height="20" viewBox="0 0 20 20">
    <g fill="none" fill-rule="evenodd">
        <circle cx="10" cy="10" r="9.999" fill="#F7931A"/>
        <path fill="#FFF" d="M15.196 13.65l-.107.226c-.272.57-.934.968-1.61.968-.537 0-1-.204-1.334-.591-.375-.433-.573-1.08-.573-1.871 0-.739.193-1.36.559-1.8.329-.4.821-.63 1.339-.627.64 0 1.266.379 1.522.92l.1.215 1.169-1.069-.055-.115c-.45-.947-1.544-1.535-2.853-1.535-2.185 0-3.653 1.61-3.653 4.008 0 2.47 1.438 4.066 3.663 4.066 1.3 0 2.38-.579 2.897-1.547l.06-.112-1.124-1.136z"/>
        <path fill="#FFF" fill-rule="nonzero" d="M9.308 12.379c0-.268.017-.535.053-.8-.687.438-1.985.354-2.497.352V9.624c.619.003 2.385-.141 2.834.714A3.987 3.987 0 0 1 10.7 8.935a3.096 3.096 0 0 0-.328-.1c.608-.306.988-.85.9-1.757-.12-1.24-1.191-1.662-2.545-1.788V3.571l-1.05-.005v1.675c-.275 0-.557.003-.837.006V3.562l-1.05-.006v1.72c-.228.003-.45.006-.668.005v-.005l-1.446-.008v1.118s.775-.011.762.003c.425 0 .563.25.603.462v4.713c-.019.133-.1.346-.394.345.013.011-.763-.005-.763-.005l-.208 1.25 1.364.008c.255 0 .505.007.75.01v1.74l1.048.005v-1.722c.287.008.566.011.838.013v1.713l1.05.006V13.19c.217-.011.427-.027.627-.05a6.25 6.25 0 0 1-.045-.761zm-2.442-5.9c.591.003 2.45-.175 2.45 1.059 0 1.183-1.86 1.035-2.45 1.032V6.479z"/>
    </g>
</svg>
