<svg xmlns="http://www.w3.org/2000/svg" width="23" height="23" viewBox="0 0 23 23">
    <g fill="none" fill-rule="evenodd">
        <path fill="#FFC246" d="M22.312 11.259c0 6.157-4.99 11.148-11.148 11.148-6.157 0-11.148-4.991-11.148-11.148S5.007.111 11.164.111 22.312 5.102 22.312 11.26"/>
        <path fill="#FFF" d="M16.154 9.737c.23-1.566-.95-2.412-2.57-2.977l.524-2.116-1.306-.331-.517 2.073-1.02-.246.51-2.081-1.278-.324-.524 2.115-2.584-.634-.314 1.382s.95.219.929.233c.36.054.62.38.593.747L7.2 13.404a.464.464 0 0 1-.587.31l-.998-.24-.636 1.482 1.67.423.915.24-.531 2.116 1.278.317.524-2.116 1.033.296-.523 2.116 1.285.325.53-2.151c2.187.423 3.828.254 4.52-1.742.558-1.609 0-2.54-1.174-3.139a2.067 2.067 0 0 0 1.648-1.904zm-2.926 4.147c-.398 1.608-3.08.705-3.946.522l.698-2.821c.845.19 3.632.613 3.22 2.299h.028zm.391-4.168c-.356 1.46-2.591.705-3.31.536l.607-2.582c.726.184 3.052.522 2.675 2.046h.028z"/>
    </g>
</svg>
