<svg xmlns="http://www.w3.org/2000/svg" width="18" height="19" viewBox="0 0 18 19">
    <g fill="none" fill-rule="evenodd">
        <path fill="#FFC246" d="M17.924 9.544a8.955 8.955 0 1 1-17.91 0 8.955 8.955 0 0 1 17.91 0"/>
        <path fill="#FFF" d="M12.977 8.322c.185-1.258-.763-1.938-2.065-2.391l.421-1.7-1.05-.266L9.87 5.63l-.82-.198.41-1.671L8.432 3.5l-.42 1.7-2.076-.51-.253 1.11s.763.176.746.187c.29.044.498.306.477.6l-1.122 4.68a.373.373 0 0 1-.471.25l-.802-.193L4 12.514l1.34.34.736.193-.426 1.7L6.675 15l.421-1.7.83.239-.42 1.7 1.032.26.426-1.728c1.756.34 3.075.204 3.63-1.4.45-1.291 0-2.04-.942-2.52a1.66 1.66 0 0 0 1.324-1.53zm-2.35 3.331c-.32 1.292-2.475.567-3.17.42l.56-2.267c.679.153 2.918.493 2.587 1.847h.022zm.313-3.348c-.286 1.172-2.081.566-2.66.43l.489-2.074c.583.148 2.452.42 2.149 1.644h.022z"/>
    </g>
</svg>
