<svg xmlns="http://www.w3.org/2000/svg" width="20" height="20" viewBox="0 0 20 20">
    <path fill="#1F263E" fill-rule="evenodd" d="M19.554 4.478L10.758.153c-.416-.204-1.1-.204-1.516 0L.447 4.478C.163 4.617 0 4.84 0 5.089l.001.011v9.154c0 .498.339 1.045.787 1.273l8.454 4.308c.216.11.487.165.758.165s.542-.055.758-.166l8.453-4.307c.449-.228.787-.775.787-1.273V5.108L20 5.089c0-.25-.163-.472-.446-.611zM9.637 19.226c-.02-.008-.042-.015-.061-.025l-8.454-4.308c-.203-.103-.395-.413-.395-.639V5.84l8.515 4.186c.116.056.25.097.395.124v9.076zm-.07-9.839L.825 5.09 9.567.792c.212-.104.654-.104.866 0l8.743 4.297-8.743 4.298c-.212.104-.654.104-.866 0zm9.705 4.867c0 .226-.192.536-.395.64L10.424 19.2c-.018.01-.04.017-.06.024V10.15c.143-.027.278-.068.394-.124l8.514-4.186v8.414z"/>
</svg>
