<svg xmlns="http://www.w3.org/2000/svg" width="20" height="20" viewBox="0 0 20 20">
    <path d="M19.633 1c.203 0 .367.188.367.42 0 .231-.164.419-.367.419H.367C.164 1.839 0 1.65 0 1.419 0 1.188.164 1 .367 1h19.266zm0 5.72c.203 0 .367.188.367.42 0 .231-.164.42-.367.42H5.367C5.164 7.56 5 7.37 5 7.14c0-.232.164-.42.367-.42h14.266zm0 5.72c.203 0 .367.188.367.42 0 .232-.164.42-.367.42H.367c-.203 0-.367-.188-.367-.42 0-.232.164-.42.367-.42h19.266zm0 5.72c.203 0 .367.188.367.42 0 .232-.164.42-.367.42H5.367C5.164 19 5 18.812 5 18.58c0-.232.164-.42.367-.42h14.266z"/>
</svg>
