<svg xmlns="http://www.w3.org/2000/svg" width="20" height="20" viewBox="0 0 20 20">
    <g fill="none" fill-rule="evenodd">
        <path fill="#07BB62" d="M19.915 10.05c0 5.495-4.455 9.95-9.95 9.95-5.496 0-9.95-4.455-9.95-9.95C.015 4.553 4.469.1 9.965.1c5.495 0 9.95 4.454 9.95 9.95"/>
        <path fill="#FFF" d="M9.99 12.524L6.32 9.903 9.991 8.34l3.672 1.563-3.672 2.621zM5.44 9.762v.001a.442.442 0 0 1-.388-.232.408.408 0 0 1 .037-.438.448.448 0 0 1 .422-.17L9.63 2.666a.41.41 0 0 1 .069-.558.454.454 0 0 1 .584 0 .41.41 0 0 1 .069.558l4.119 6.259a.456.456 0 0 1 .47.21.418.418 0 0 1-.048.495.461.461 0 0 1-.502.123.432.432 0 0 1-.29-.412c0-.01.004-.02.004-.03l-3.833-1.886a.444.444 0 0 1-.562 0L5.877 9.31l.003.03a.432.432 0 0 1-.44.422zm4.722-6.77v3.72c.163.067.269.22.269.39l-.003.03 3.634 1.788-3.9-5.928zm-.342 0L5.92 8.92l3.634-1.789-.003-.03c0-.17.106-.323.269-.39V2.993zm4.722 7.149h-.002a.431.431 0 0 1 .427.423.431.431 0 0 1-.496.416l-4.122 6.353a.41.41 0 0 1-.066.56.454.454 0 0 1-.586 0 .41.41 0 0 1-.067-.56L5.508 10.98a.44.44 0 0 1-.475-.254.41.41 0 0 1 .096-.46.453.453 0 0 1 .48-.092c.164.065.271.22.271.39a.403.403 0 0 1-.016.106l3.865 2.85a.446.446 0 0 1 .524 0l3.864-2.85a.404.404 0 0 1 .075-.367.441.441 0 0 1 .35-.162zm-4.722 6.86v-2.755a.398.398 0 0 1-.264-.44l-3.471-2.56 3.735 5.755zm.342 0l3.735-5.755-3.471 2.56a.391.391 0 0 1 .005.05c0 .17-.106.323-.269.39V17z"/>
    </g>
</svg>
