<svg xmlns="http://www.w3.org/2000/svg" width="20" height="20" viewBox="0 0 20 20">
    <path fill="#50B8E4" fill-rule="evenodd" d="M18.224 11.522c.141.06.25.17.308.31l1.442 3.556a.35.35 0 0 1-.2.458.36.36 0 0 1-.465-.196l-1.18-2.906a9.23 9.23 0 0 1-3.608 4.78C13.075 18.498 11.437 19 9.777 19a8.289 8.289 0 0 1-1.78-.194c-3.227-.71-5.713-3.296-6.418-6.636a.343.343 0 0 1 .287-.405.37.37 0 0 1 .42.287c.655 3.057 2.926 5.419 5.868 6.066 2.048.451 4.166.034 5.963-1.175a8.535 8.535 0 0 0 3.374-4.553l-3.057 1.2a.36.36 0 0 1-.466-.196.35.35 0 0 1 .2-.458l3.616-1.419a.582.582 0 0 1 .44.005zM1.469 8.166L.026 4.611a.35.35 0 0 1 .2-.458.36.36 0 0 1 .465.197l1.18 2.905a9.232 9.232 0 0 1 3.609-4.78C7.442 1.155 9.759.7 12.003 1.195c3.227.709 5.714 3.294 6.418 6.634a.343.343 0 0 1-.287.405.37.37 0 0 1-.42-.288c-.655-3.056-2.926-5.417-5.867-6.064-2.048-.451-4.166-.033-5.963 1.175A8.538 8.538 0 0 0 2.51 7.608l3.056-1.2a.36.36 0 0 1 .466.197.35.35 0 0 1-.2.458L2.217 8.482a.583.583 0 0 1-.44-.006.567.567 0 0 1-.308-.31z"/>
</svg>
