<svg xmlns="http://www.w3.org/2000/svg" width="20" height="20" viewBox="0 0 20 20">
    <g fill="none" fill-rule="evenodd">
        <path fill="#5D8BAD" d="M19.9 9.95c0 5.496-4.454 9.95-9.95 9.95C4.455 19.9 0 15.446 0 9.95 0 4.455 4.455 0 9.95 0c5.496 0 9.95 4.455 9.95 9.95"/>
        <path fill="#FFF" fill-rule="nonzero" d="M15.811 8.485c.035.134.03.29-.017.467-.3 1.12-2.207 2.764-4.516 3.976-.258.107-.416-.087-.355-.253a.283.283 0 0 1 .132-.146c2.348-1.232 4.288-2.902 4.59-4.04a.883.883 0 0 0 0-.533c.052.159.124.369.166.53zm-.538-1.356l.074.14c.07.195.07.195.072.313a.034.034 0 0 1-.01.02c-.067-.022-.229-.33-.244-.464a.683.683 0 0 0-.079-.324l-.023-.04a.582.582 0 0 1 .023.04l.187.315zm-2.654-2.53c.304.143.431.404.33.784-.303 1.137-2.536 2.9-4.989 3.938-.426.183-.863.34-1.309.471-.22.032-.257-.288-.164-.42a.188.188 0 0 1 .09-.068c.419-.123.83-.272 1.231-.445 2.308-.977 4.41-2.637 4.695-3.708.096-.358-.024-.604-.312-.737l-.074-.03.074.03c.139.059.302.126.428.186zm-3.062-.583c.15-.007.347-.015.496-.016.526.002.8.208.693.611-.132.496-.808 1.168-1.716 1.77-.172.082-.349-.15-.312-.248a.117.117 0 0 1 .03-.037c.793-.526 1.383-1.113 1.5-1.546.106-.405-.227-.58-.827-.523l.136-.011zM5.414 6.35a.513.513 0 0 1 .048-.166c.049-.104.11-.2.182-.288.102-.125.214-.242.334-.349.065-.06.092-.083.152-.133s.085-.071.153-.125c.06-.047.082-.065.139-.106.056-.041.078-.058.14-.101.056-.04.076-.054.132-.09.055-.036.075-.05.132-.085l.13-.08c.055-.03.075-.043.132-.075.057-.032.08-.044.135-.072.057-.03.079-.041.139-.07.06-.03.085-.042.146-.07l.153-.067c.09-.037.133-.055.197-.079a5.843 5.843 0 0 1 .385-.133c.078-.023.111-.034.197-.057.765-.205 1.243-.093 1.132.324-.037.14-.137.3-.285.47-.122.06-.4-.005-.45-.057.12-.144.2-.27.23-.383.097-.363-.37-.435-1.082-.202-.076.029-.15.055-.228.089-.48.204-.936.461-1.36.766-.167.128-.32.273-.454.435a.895.895 0 0 0-.173.309c-.024.09-.014.161.026.215.148.2.701.155 1.418-.15.226-.096.445-.206.656-.331.082-.03.177.078.196.106.02.029.06.105.003.155a7.106 7.106 0 0 1-.826.419c-.903.38-1.598.439-1.784.186a.277.277 0 0 1-.045-.205zm-.667.889a1.01 1.01 0 0 1 .07-.24c.033-.066.08-.15.117-.213.037-.063.088-.132.137-.202.048-.07.1-.143.144-.203l.082-.107.002-.002c-.052.067-.097.136-.144.205-.056.088-.1.184-.13.284-.038.142-.022.256.04.341.195.265.833.259 1.695-.027.125-.018.113.212.113.215-.011.125-.028.314-1.124.45-.314.038-.73.035-.93-.198l-.005-.006a.368.368 0 0 1-.057-.127l-.003-.01a.72.72 0 0 1-.007-.16zm-.46.99a.942.942 0 0 1 .054-.217c.053-.136.12-.311.183-.457a1.23 1.23 0 0 1-.044.129c-.05.188-.028.339.055.452.31.422 1.472.325 2.978-.314 1.912-.81 3.653-2.185 3.89-3.071.085-.32-.037-.532-.318-.636.054-.003.06-.004.201.026.11.023.172.04.231.057.326.12.46.351.366.7-.258.97-2.163 2.475-4.253 3.36-1.65.7-2.92.805-3.26.344a.506.506 0 0 1-.083-.374zm-.243 1.055l.049-.324.042-.216.012-.05c-.012.054-.018.11-.027.164a.548.548 0 0 0 .093.382.604.604 0 0 0 .22.18c.075.067.035.328.035.33-.014.08-.04.173-.093.165a.628.628 0 0 1-.231-.2v.01c-.011-.015-.019-.032-.028-.047l-.015-.026-.012-.02a.54.54 0 0 1-.038-.13l-.004-.033a.574.574 0 0 1-.003-.186v.001zm.023 1.448l-.011-.036a.622.622 0 0 1-.023-.1l-.006-.03c0-.002 0-.004-.002-.007 0-.011 0-.024-.002-.036v-.006c-.009-.159-.023-.355-.023-.505a.595.595 0 0 0 .112.362c1.702 1.822 9.338-2.876 9.436-4.847.018-.344-.18-.49-.286-.568l.205.138.24.18c.216.168.294.425.202.77-.336 1.26-2.813 3.217-5.533 4.371-2.15.91-3.804 1.043-4.238.438v.007a.572.572 0 0 1-.064-.115l-.007-.017v.001zm.31 1.268l-.005-.006-.002-.003-.002-.002-.004-.006a.404.404 0 0 1-.085-.17c-.044-.162-.106-.375-.142-.535a.61.61 0 0 0 .103.232l.007.01c.469.613 2.183.466 4.4-.472 2.826-1.2 5.402-3.233 5.752-4.544.079-.3.036-.534-.11-.706l-.038-.04a.598.598 0 0 1 .037.04c.107.116.239.255.334.368.147.175.19.413.109.716-.357 1.337-2.984 3.412-5.868 4.634-2.264.96-4.012 1.107-4.487.48V12zm.47 1.069s-.025-.018-.1-.18l-.009-.016a5.53 5.53 0 0 1-.126-.257c.474.645 2.253.497 4.56-.48 1.732-.734 3.373-1.771 4.5-2.777.196-.103.28.056.308.129.058.159-.01.255-.056.32-1.128 1.007-2.772 2.046-4.507 2.781-2.162.912-3.857 1.099-4.457.592a1.178 1.178 0 0 1-.113-.114v.002zm.557.786a6.127 6.127 0 0 1-.176-.214l-.009-.012.015.018c.282.355.978.456 1.95.296.196-.01.325.153.35.197.026.052.055.144-.064.178-.918.15-1.587.066-1.884-.25-.056-.064-.12-.14-.182-.214v.001zm.706.718c.535.45 1.988.315 3.856-.425.276-.085.367.1.368.101.016.037.035.131-.12.208-1.751.694-3.125.836-3.676.447-.13-.1-.304-.228-.428-.332v.001zm8.123-.448a.725.725 0 0 1-.142.166 9.24 9.24 0 0 1-2.117 1.25c-.666.283-1.249.434-1.68.456a14.3 14.3 0 0 1-.52 0c-.036 0-.07 0-.104-.003l.104.003c.497 0 1.205-.171 2.026-.518.895-.38 1.75-.896 2.4-1.417a.264.264 0 0 1 .05-.027l.012.024a.452.452 0 0 1-.03.065v.001zm1.318-1.838c-.896 1.83-5.005 3.877-6.641 3.614-.17-.037-.396-.087-.564-.132.585.166 1.676-.025 3.003-.587 2.135-.905 4.083-2.432 4.395-3.438-.056.164-.123.384-.193.543zm.428-1.736c-.019.141-.039.33-.063.47a.958.958 0 0 1-.02.088c-.293 1.1-2.455 2.809-4.83 3.814-1.543.655-2.797.85-3.403.604-.15-.07-.35-.16-.495-.236 2.083.868 8.51-2.645 8.818-4.818l-.007.078zm-.016-.512c-.183.686-1.012 1.582-2.17 2.437-.188.115-.27-.051-.242-.185a.35.35 0 0 1 .121-.195c1.2-.885 2.059-1.813 2.248-2.523a.96.96 0 0 0 .032-.37l.037.35.01.193a.986.986 0 0 1-.036.293z"/>
    </g>
</svg>
