<svg xmlns="http://www.w3.org/2000/svg" width="20" height="20" viewBox="0 0 20 20">
    <path fill="#50B8E4" fill-rule="evenodd" d="M12.111 19v-4.624c0-1.376-.607-2.495-2.111-2.495-1.504 0-2.111 1.119-2.111 2.495V19H5.177C3.8 19 2.68 17.855 2.68 16.448v-6.046a.293.293 0 0 0-.29-.295H.997C.447 10.107 0 9.65 0 9.088v-.876c0-.475.277-1.054.644-1.346L8.768.409C9.1.146 9.537 0 10 0c.463 0 .9.146 1.232.41l8.124 6.456c.367.292.644.87.644 1.346v.876a1.01 1.01 0 0 1-.997 1.019H17.61c-.16 0-.29.133-.29.295v6.046c0 1.407-1.12 2.552-2.497 2.552H12.11z"/>
</svg>
