<svg xmlns="http://www.w3.org/2000/svg" width="20" height="20" viewBox="0 0 20 20">
    <g fill="none" fill-rule="evenodd">
        <path fill="#08316A" d="M19.915 10.05c0 5.495-4.455 9.95-9.95 9.95-5.496 0-9.95-4.455-9.95-9.95C.015 4.553 4.469.1 9.965.1c5.495 0 9.95 4.454 9.95 9.95"/>
        <path fill="#FFF" d="M8.686 16.97c-.011.01-.032.02-.041.03H7.48a.054.054 0 0 1-.042-.02l-3.43-3.808a.06.06 0 0 1 0-.062L8.28 5.864a.059.059 0 0 1 .094 0L9.57 7.896c.01.015.01.036 0 .051l-2.89 4.896a.066.066 0 0 0 .01.062l1.726 1.909c.012.01.027.018.042.02h2.037a.05.05 0 0 1 .052.026.048.048 0 0 1-.01.056l-1.85 2.053zm1.27-13.94c.02-.04.075-.04.082 0l5.959 10.058a.066.066 0 0 1-.01.062l-3.432 3.809a.08.08 0 0 1-.042.02H9.727a.049.049 0 0 1-.051-.026.048.048 0 0 1 .01-.056l3.607-4.003a.05.05 0 0 0 .01-.061L8.75 5.114a.047.047 0 0 1 0-.051L9.956 3.03z"/>
    </g>
</svg>
