<svg xmlns="http://www.w3.org/2000/svg" width="20" height="20" viewBox="0 0 20 20">
    <path fill="#50B8E4" fill-rule="evenodd" d="M18.031 6.23h-5.41c1.488-.404 3.13-1.092 3.83-2.24.356-.585.441-1.234.255-1.93A2.792 2.792 0 0 0 13.293.096c-1.547.414-2.567 2.52-3.17 4.324-.041-.002-.081-.006-.123-.006-.084 0-.167.004-.248.012-.518-1.458-1.38-3.138-2.663-3.481A2.444 2.444 0 0 0 4.1 2.665c-.162.605-.089 1.171.218 1.682.569.944 1.867 1.529 3.07 1.883H1.97A.969.969 0 0 0 1 7.196v2.417c0 .533.434.966.969.966h.361v8.455c0 .532.435.966.969.966H16.7a.969.969 0 0 0 .969-.966v-8.455h.361A.969.969 0 0 0 19 9.613V7.196a.969.969 0 0 0-.969-.966zM10 5.12c.753 0 1.258.368 1.417 1.005.014.058-.025.105-.085.105H8.668c-.06 0-.1-.047-.085-.105.159-.637.664-1.004 1.417-1.004zM7.82 19.293H3.299a.26.26 0 0 1-.26-.258v-8.455h4.78v8.713zm0-12.35v2.93H1.969a.26.26 0 0 1-.26-.259V7.196a.26.26 0 0 1 .26-.259h5.85v.005zm.173-1.28c-1.57-.402-2.653-.994-3.066-1.68-.208-.344-.254-.715-.141-1.134a1.734 1.734 0 0 1 2.119-1.22c.778.207 1.537 1.256 2.154 2.965a1.932 1.932 0 0 0-1.066 1.07zm3.478 13.63H8.53V10.58h2.942v8.713zm0-9.42H8.53v-2.93h2.942v2.93zm-.644-5.323c.74-2.175 1.676-3.51 2.65-3.77a2.08 2.08 0 0 1 2.544 1.465c.136.509.079.96-.177 1.378-.514.845-1.873 1.562-3.84 2.036a1.938 1.938 0 0 0-1.177-1.109zm6.133 14.485a.26.26 0 0 1-.259.258h-4.52V10.58h4.78v8.455zm1.33-9.42a.26.26 0 0 1-.259.258h-5.85V6.937h5.85a.26.26 0 0 1 .26.259v2.417z"/>
</svg>
