<svg xmlns="http://www.w3.org/2000/svg" width="20" height="20" viewBox="0 0 20 20">
    <path fill="#50B8E4" fill-rule="evenodd" d="M10 2.056c.922 0 1.671.759 1.671 1.692 0 .933-.75 1.693-1.671 1.693-.922 0-1.671-.76-1.671-1.693S9.079 2.056 10 2.056zm0 2.731c.566 0 1.026-.466 1.026-1.039 0-.572-.46-1.038-1.026-1.038-.566 0-1.026.466-1.026 1.038 0 .573.46 1.04 1.026 1.04zm9.46-.178c.308.159.54.542.54.891v.858a.839.839 0 0 1-.832.843H17.74v1.313c0 .3-.24.544-.537.544h-.089v4.68h.089c.296 0 .537.245.537.546v1.313h.862c.77 0 1.398.635 1.398 1.416v.571c0 .78-.627 1.416-1.398 1.416H1.398C.628 19 0 18.365 0 17.584v-.571c0-.781.627-1.416 1.398-1.416h.862v-1.313c0-.3.24-.545.537-.545h.089v-4.68h-.089a.542.542 0 0 1-.537-.545V7.2H.832A.839.839 0 0 1 0 6.358V5.5c0-.35.232-.732.54-.89L9.127.182c.476-.244 1.27-.244 1.746 0L19.46 4.61zm-.858 11.641H1.398a.759.759 0 0 0-.753.763v.571c0 .42.338.763.753.763h17.204a.759.759 0 0 0 .753-.763v-.571a.759.759 0 0 0-.753-.763zM2.994 8.405c.296 0 .537.244.537.544v4.899c0 .3-.241.544-.538.544h-.088v1.205h2.702v-1.24h-.089a.542.542 0 0 1-.538-.544v-4.9c0-.3.242-.544.538-.544h.089V7.2H2.905v1.204h.089zm5.547.618a.542.542 0 0 1-.537-.545V7.201H6.252v1.277c0 .3-.241.545-.538.545h-.088v4.68h.088c.297 0 .538.245.538.545v1.349h1.752v-1.349c0-.3.241-.544.537-.544h.089V9.023H8.54zm.196-.654c.297 0 .538.245.538.545v4.899c0 .3-.241.545-.538.545H8.65v1.24h2.701v-1.205h-.088a.541.541 0 0 1-.537-.545V8.95c0-.3.24-.545.537-.545h.088V7.2H8.65V8.37h.088zm5.549.69a.541.541 0 0 1-.538-.545V7.2h-1.752v1.313c0 .3-.242.544-.538.544h-.088v4.68h.088c.296 0 .538.245.538.546v1.313h1.752v-1.313c0-.3.241-.545.538-.545h.088v-4.68h-.088zm.196-.654c.296 0 .538.244.538.544v4.9c0 .3-.242.544-.538.544h-.088v1.204h2.701v-1.204h-.088a.542.542 0 0 1-.538-.545V8.95c0-.3.241-.544.538-.544h.088V7.2h-2.701v1.204h.088zm4.873-2.047V5.5a.426.426 0 0 0-.187-.309L10.58.766A1.32 1.32 0 0 0 10 .647c-.222 0-.433.044-.58.12L.832 5.19a.427.427 0 0 0-.187.309v.858c0 .104.084.19.187.19h18.336a.188.188 0 0 0 .187-.19z"/>
</svg>
