<svg xmlns="http://www.w3.org/2000/svg" xmlns:xlink="http://www.w3.org/1999/xlink" width="20" height="20" viewBox="0 0 20 20">
    <defs>
        <path id="a" d="M14.726 0c-.164 0-.44.044-.604.082L2.11 4.59C.585 5.093 0 5.725 0 7.28v10.305C0 18.886 1.102 20 2.5 20h15c1.396 0 2.5-1.112 2.5-2.415V6.922c0-1.302-1.103-2.002-2.5-2.002H4.272c6.77-2.469 10.206-3.717 10.308-3.743.146 0 .252.053.325.149.072.096.095.26.095.454v1.162h1.188V1.734c0-.581-.071-1.033-.528-1.415-.343-.287-.443-.32-.934-.319zM2.5 5.895h15c.786 0 1.392.607 1.392 1.287v10.294c0 .919-.482 1.447-1.392 1.447h-15c-.918 0-1.418-.59-1.418-1.447V7.278c0-.884.591-1.383 1.418-1.383zm12.875 4.263c-.897 0-1.625.734-1.625 1.64 0 .906.728 1.64 1.625 1.64S17 12.704 17 11.798c0-.906-.728-1.64-1.625-1.64z"/>
    </defs>
    <use fill-rule="evenodd" transform="matrix(-1 0 0 1 20 0)" xlink:href="#a"/>
</svg>
