<svg xmlns="http://www.w3.org/2000/svg" width="20" height="20" viewBox="0 0 20 20">
    <path fill="#50B8E4" fill-rule="evenodd" d="M16.27 0c-2.362 0-4.266 1.574-6.107 3.097-1.667 1.378-3.241 2.68-4.986 2.68H2.283A2.283 2.283 0 0 0 0 8.056V9.98a2.283 2.283 0 0 0 2.283 2.279h.128v4.461A2.283 2.283 0 0 0 4.694 19h.965a2.283 2.283 0 0 0 2.283-2.279v-3.484c.737.478 1.47 1.082 2.22 1.703 1.842 1.523 3.746 3.098 6.108 3.098 2.092 0 3.73-3.962 3.73-9.02C20 3.962 18.362 0 16.27 0zM7.235 16.722c0 .867-.707 1.572-1.576 1.572h-.964a1.576 1.576 0 0 1-1.576-1.572V12.26h2.058c.708 0 1.388.217 2.058.564v3.898zm3.379-2.326C8.924 13 7.177 11.554 5.177 11.554H2.283A1.576 1.576 0 0 1 .707 9.98V8.056c0-.867.707-1.573 1.576-1.573h2.894c2 0 3.747-1.445 5.437-2.842 1.235-1.021 2.5-2.065 3.881-2.588-1.173 1.503-1.955 4.472-1.955 7.966 0 3.493.782 6.463 1.955 7.965-1.381-.523-2.646-1.567-3.881-2.588zm5.656 2.935c-1.46 0-3.022-3.34-3.022-8.312 0-4.973 1.562-8.313 3.022-8.313 1.46 0 3.023 3.34 3.023 8.313 0 4.972-1.563 8.312-3.023 8.312z"/>
</svg>
