<svg xmlns="http://www.w3.org/2000/svg" width="20" height="20" viewBox="0 0 20 20">
    <path fill="#50B8E4" fill-rule="evenodd" d="M10 16.062a.643.643 0 1 1 0-1.287.643.643 0 0 1 0 1.287zM10 0c5.514 0 10 4.486 10 10s-4.486 10-10 10S0 15.514 0 10 4.486 0 10 0zm0 19.292c5.124 0 9.292-4.168 9.292-9.292S15.124.708 10 .708.708 4.876.708 10 4.876 19.292 10 19.292zm0-15.005a3.31 3.31 0 0 1 2.338 5.646c-.108.108-.24.214-.392.337-.59.478-1.46 1.182-1.58 2.61a.36.36 0 0 1-.35.336h-.033a.32.32 0 0 1-.326-.337c.122-1.765 1.19-2.629 1.844-3.158.137-.111.256-.207.337-.288A2.602 2.602 0 0 0 10 4.995c-1.32 0-2.413.988-2.578 2.263-.024.185-.172.336-.359.336H7.03c-.186 0-.34-.15-.32-.336A3.312 3.312 0 0 1 10 4.288z"/>
</svg>
