<svg xmlns="http://www.w3.org/2000/svg" width="20" height="20" viewBox="0 0 20 20">
    <path fill="#50B8E4" fill-rule="evenodd" d="M6.249 0a2.5 2.5 0 0 1 2.497 2.497V6.25a2.5 2.5 0 0 1-2.497 2.497H2.497A2.5 2.5 0 0 1 0 6.249V2.497A2.5 2.5 0 0 1 2.497 0H6.25zm1.79 6.249V2.497c0-.987-.804-1.79-1.79-1.79H2.497c-.987 0-1.79.803-1.79 1.79V6.25c0 .987.803 1.79 1.79 1.79H6.25c.987 0 1.79-.804 1.79-1.79zM17.502 0A2.5 2.5 0 0 1 20 2.497V6.25a2.5 2.5 0 0 1-2.497 2.497H13.75a2.5 2.5 0 0 1-2.497-2.497V2.497A2.5 2.5 0 0 1 13.751 0h3.752zm1.79 6.249V2.497c0-.987-.803-1.79-1.79-1.79H13.75c-.987 0-1.79.803-1.79 1.79V6.25c0 .987.803 1.79 1.79 1.79h3.751c.988 0 1.79-.804 1.79-1.79zM6.248 11.254a2.5 2.5 0 0 1 2.497 2.497v3.752A2.5 2.5 0 0 1 6.249 20H2.497A2.5 2.5 0 0 1 0 17.503V13.75a2.5 2.5 0 0 1 2.497-2.497H6.25zm1.79 6.249V13.75c0-.987-.804-1.79-1.79-1.79H2.497c-.987 0-1.79.803-1.79 1.79v3.752c0 .987.803 1.79 1.79 1.79H6.25c.987 0 1.79-.803 1.79-1.79zm9.464-6.249A2.5 2.5 0 0 1 20 13.751v3.752A2.5 2.5 0 0 1 17.503 20H13.75a2.5 2.5 0 0 1-2.497-2.497V13.75a2.5 2.5 0 0 1 2.497-2.497h3.752zm1.79 6.249V13.75c0-.987-.803-1.79-1.79-1.79H13.75c-.987 0-1.79.803-1.79 1.79v3.752c0 .987.803 1.79 1.79 1.79h3.751c.988 0 1.79-.803 1.79-1.79z"/>
</svg>
