<svg xmlns="http://www.w3.org/2000/svg" width="20" height="20" viewBox="0 0 20 20">
    <path fill="#50B8E4" fill-rule="evenodd" d="M10.5 6.11c2.17 0 3.937 1.745 3.937 3.89 0 2.146-1.766 3.891-3.937 3.891-2.17 0-3.938-1.745-3.938-3.89 0-2.146 1.767-3.891 3.938-3.891zm0 7.074c1.776 0 3.221-1.429 3.221-3.183 0-1.756-1.445-3.184-3.221-3.184s-3.221 1.428-3.221 3.184c0 1.754 1.445 3.183 3.22 3.183zm7.6-4.636a.59.59 0 0 0-.255.53c.002.017.064.4.064.922 0 .523-.061.906-.064.922a.589.589 0 0 0 .255.53l1.179.672a1.417 1.417 0 0 1 .528 1.947l-1.085 1.857a1.43 1.43 0 0 1-.876.663 1.449 1.449 0 0 1-1.094-.141l-1.179-.672a.606.606 0 0 0-.593.046c-.012.01-.324.26-.775.517a6.481 6.481 0 0 1-.84.405.595.595 0 0 0-.337.484v1.344c0 .786-.648 1.426-1.443 1.426h-2.17c-.795 0-1.442-.64-1.442-1.426V17.23a.594.594 0 0 0-.338-.484 6.468 6.468 0 0 1-.84-.405 6.498 6.498 0 0 1-.775-.517.604.604 0 0 0-.592-.046l-1.18.672a1.455 1.455 0 0 1-1.97-.522l-1.085-1.856a1.417 1.417 0 0 1 .528-1.948l1.179-.672a.59.59 0 0 0 .255-.53A6.26 6.26 0 0 1 3.091 10c0-.522.062-.906.064-.922a.589.589 0 0 0-.255-.53l-1.18-.673a1.417 1.417 0 0 1-.527-1.947l1.085-1.856c.192-.329.503-.564.876-.663a1.45 1.45 0 0 1 1.094.141l1.18.673c.161.092.449.069.593-.047.013-.01.324-.26.774-.516.446-.254.824-.399.84-.405a.595.595 0 0 0 .337-.485V1.426C7.972.639 8.62 0 9.415 0h2.17c.795 0 1.443.64 1.443 1.426V2.77c0 .184.164.42.337.485.016.006.395.15.84.405.45.257.761.506.775.516a.605.605 0 0 0 .592.047l1.18-.673c.332-.19.722-.24 1.094-.14.373.098.684.334.876.662l1.085 1.857a1.418 1.418 0 0 1-.528 1.947l-1.179.672zm-.962.642c-.076-.467.19-1.018.604-1.254l1.178-.673a.714.714 0 0 0 .266-.981l-1.084-1.857a.72.72 0 0 0-.442-.333.726.726 0 0 0-.551.07l-1.18.673c-.414.237-1.03.188-1.401-.11a5.95 5.95 0 0 0-1.42-.81c-.447-.169-.797-.672-.797-1.145V1.426a.723.723 0 0 0-.727-.719h-2.17c-.4 0-.726.323-.726.719V2.77c0 .474-.35.976-.797 1.146a5.908 5.908 0 0 0-1.42.81c-.37.298-.986.346-1.401.11l-1.18-.674a.73.73 0 0 0-.55-.07.72.72 0 0 0-.443.333L1.813 6.282a.713.713 0 0 0 .266.981l.38.217.799.456c.415.236.68.787.604 1.255 0 .003-.055.347-.055.81 0 .462.054.806.055.809.076.467-.19 1.018-.604 1.255l-.796.453-.382.219a.715.715 0 0 0-.266.982l1.085 1.856c.2.343.645.46.993.263l.382-.219.796-.453c.414-.238 1.03-.189 1.402.11.003.002.284.226.682.453.397.227.735.355.738.356.447.17.797.673.797 1.146v1.344c0 .396.326.718.727.718h2.17c.4 0 .726-.322.726-.718V17.23c0-.473.35-.976.797-1.145a5.904 5.904 0 0 0 1.42-.81c.372-.299.988-.347 1.403-.11l1.178.671c.167.096.363.121.55.071a.722.722 0 0 0 .443-.334l1.084-1.856a.715.715 0 0 0-.266-.981l-1.178-.672c-.415-.237-.68-.788-.605-1.256 0-.002.055-.346.055-.809 0-.462-.055-.806-.055-.81z"/>
</svg>
