<svg xmlns="http://www.w3.org/2000/svg" xmlns:xlink="http://www.w3.org/1999/xlink" width="20" height="20" viewBox="0 0 20 20">
    <defs>
        <path id="a" d="M.409 20A.421.421 0 0 1 0 19.569a.42.42 0 0 1 .409-.432h19.182a.42.42 0 0 1 .409.432.421.421 0 0 1-.41.431H.41zM2.792 9.486a.402.402 0 0 1-.33-.176.447.447 0 0 1 .087-.603l9.394-7.264L8.22.858a.428.428 0 0 1-.345-.49.414.414 0 0 1 .465-.363l4.46.7a.647.647 0 0 1 .431.274c.105.149.149.332.123.514l-.666 4.703a.417.417 0 0 1-.465.363.429.429 0 0 1-.344-.49l.557-3.938-9.404 7.271a.392.392 0 0 1-.241.084zm12.918 7.628c-.773 0-1.401-.544-1.401-1.212V6.114c0-.668.629-1.212 1.401-1.212h1.853c.773 0 1.401.544 1.401 1.212v9.788c0 .668-.628 1.212-1.4 1.212H15.71zm-.583-11v9.788c0 .277.262.504.583.504h1.853c.321 0 .583-.227.583-.504V6.114c0-.278-.262-.504-.583-.504H15.71c-.321 0-.583.226-.583.504zm-4.314 2.36c.772 0 1.4.529 1.4 1.18v6.3c0 .65-.628 1.18-1.4 1.18H8.96c-.772 0-1.4-.53-1.4-1.18v-6.3c0-.651.628-1.18 1.4-1.18h1.853zm.582 7.48v-6.3c0-.271-.26-.491-.582-.491H8.96c-.321 0-.582.22-.582.49v6.3c0 .27.26.491.582.491h1.853c.321 0 .582-.22.582-.49zm-8.914 1.2c-.773 0-1.401-.534-1.401-1.189v-3.092c0-.656.628-1.189 1.4-1.189h1.853c.773 0 1.402.533 1.402 1.19v3.091c0 .655-.629 1.189-1.402 1.189H2.481zm-.583-4.28v3.091c0 .272.261.494.583.494h1.852c.322 0 .583-.222.583-.494v-3.092c0-.272-.261-.494-.583-.494H2.481c-.322 0-.583.222-.583.494z"/>
    </defs>
    <use fill="#50B8E4" fill-rule="evenodd" xlink:href="#a"/>
</svg>
