<svg xmlns="http://www.w3.org/2000/svg" width="20" height="20" viewBox="0 0 20 20">
    <path fill="#50B8E4" fill-rule="evenodd" d="M3.25 9.47a.365.365 0 0 1-.367.365H.367A.365.365 0 0 1 0 9.47c0-.201.164-.364.367-.364h2.516c.203 0 .367.163.367.364zm16.383-.365a.365.365 0 0 1 0 .729h-2.516a.365.365 0 0 1-.367-.364c0-.202.164-.365.367-.365h2.516zM4.027 13.333a.368.368 0 0 1 .512.08.363.363 0 0 1-.081.51l-2.036 1.47a.369.369 0 0 1-.512-.08.363.363 0 0 1 .08-.51l2.037-1.47zm11.946-7.726a.368.368 0 0 1-.512-.08.363.363 0 0 1 .081-.51l2.036-1.469a.368.368 0 0 1 .512.08.363.363 0 0 1-.08.51l-2.037 1.47zM12.086 3.09a.364.364 0 0 1-.236-.459l.778-2.379a.367.367 0 0 1 .698.225l-.778 2.379a.367.367 0 0 1-.462.234zm-4.634-.234L6.674.477a.367.367 0 0 1 .698-.225l.778 2.379a.367.367 0 0 1-.698.225zm10.557 11.947c.164.118.2.346.081.51a.369.369 0 0 1-.512.08l-2.036-1.47a.363.363 0 0 1-.081-.51.368.368 0 0 1 .512-.08l2.036 1.47zM4.458 5.018c.164.118.2.346.081.509a.368.368 0 0 1-.512.08L1.99 4.137a.363.363 0 0 1-.081-.508.368.368 0 0 1 .512-.081l2.036 1.47zM10 4.358c2.836 0 5.144 2.293 5.144 5.112 0 2.358-1.96 5.067-2.555 5.835v1.122A2.584 2.584 0 0 1 10 19a2.584 2.584 0 0 1-2.589-2.573v-1.122c-.595-.768-2.555-3.477-2.555-5.835 0-2.819 2.308-5.112 5.144-5.112zm1.856 12.069v-.778H8.144v.778c0 1.017.833 1.844 1.856 1.844a1.852 1.852 0 0 0 1.856-1.844zm.105-1.507c.48-.618 2.45-3.28 2.45-5.45 0-2.417-1.979-4.383-4.411-4.383-2.432 0-4.41 1.966-4.41 4.383 0 2.173 1.968 4.833 2.449 5.45h3.922z"/>
</svg>
