<svg xmlns="http://www.w3.org/2000/svg" width="20" height="20" viewBox="0 0 20 20">
    <g fill="none" fill-rule="evenodd">
        <path fill="#1786C4" d="M10 20C4.477 20 0 15.523 0 10S4.477 0 10 0s10 4.477 10 10-4.477 10-10 10z"/>
        <path fill="#FFF" d="M14.95 4h2.024l-4.213 4.315a3.84 3.84 0 0 1-5.522 0L3.026 4h2.025l3.2 3.278c.966.99 2.532.99 3.498 0L14.949 4zM5.024 16H3l4.239-4.342a3.84 3.84 0 0 1 5.522 0L17 16h-2.025l-3.226-3.305a2.432 2.432 0 0 0-3.498 0L5.025 16z"/>
    </g>
</svg>
