<svg xmlns="http://www.w3.org/2000/svg" width="23" height="23" viewBox="0 0 23 23">
    <g fill="none" fill-rule="evenodd">
        <path fill="#1786C4" d="M11.204 22.407C5.016 22.407 0 17.391 0 11.204 0 5.016 5.016 0 11.204 0c6.187 0 11.203 5.016 11.203 11.204 0 6.187-5.016 11.203-11.203 11.203z"/>
        <path fill="#FFF" d="M16.749 4.481h2.268l-4.72 4.835a4.302 4.302 0 0 1-6.187 0L3.39 4.481h2.27l3.585 3.673a2.724 2.724 0 0 0 3.918 0l3.586-3.673zM5.629 17.926H3.362l4.75-4.865a4.302 4.302 0 0 1 6.186 0l4.75 4.865h-2.27l-3.614-3.703a2.724 2.724 0 0 0-3.919 0L5.63 17.926z"/>
    </g>
</svg>
