<svg xmlns="http://www.w3.org/2000/svg" xmlns:xlink="http://www.w3.org/1999/xlink" width="18" height="18" viewBox="0 0 18 18">
    <defs>
        <path id="a" d="M17.97 9.172c0 4.875-3.945 8.826-8.812 8.826-4.866 0-8.811-3.951-8.811-8.826C.347 4.298 4.292.346 9.158.346c4.867 0 8.812 3.952 8.812 8.826z"/>
    </defs>
    <g fill="none" fill-rule="evenodd">
        <mask id="b" fill="#fff">
            <use xlink:href="#a"/>
        </mask>
        <use fill="#F4F4F4" xlink:href="#a"/>
        <path fill="#FF1612" d="M7.947 13.924H1.735c.31.487.668.941 1.068 1.357h12.71c.4-.416.757-.87 1.068-1.357H7.945h.002zM13.85 1.704a8.8 8.8 0 0 0-9.385 0h9.386zM14.052 3.061H2.802c-.399.417-.756.872-1.067 1.36H16.58a8.864 8.864 0 0 0-1.068-1.36h-1.461zM7.947 5.778H1.023c-.183.44-.33.893-.439 1.357h17.147a8.836 8.836 0 0 0-.438-1.357H7.947zM7.947 11.21H.584c.11.463.256.917.439 1.357h16.27c.182-.44.329-.894.438-1.358H7.947zM4.463 16.639a8.76 8.76 0 0 0 4.677 1.359h.035a8.76 8.76 0 0 0 4.678-1.36h-9.39zM7.947 8.492H.374c-.016.225-.028.45-.028.68 0 .23.012.454.028.678h17.567c.016-.224.028-.45.028-.678 0-.228-.012-.455-.028-.68H7.947z" mask="url(#b)"/>
        <path fill="#F4F4F4" d="M5.905.97l.088-.034-.04-.119c-.015.059-.03.101-.048.152z" mask="url(#b)"/>
        <path d="M9.302.346v9.497H.374c.363 4.755 4.43 8.361 9.187 8.145 4.756-.217 8.48-4.178 8.41-8.947-.07-4.768-3.908-8.618-8.669-8.695z" mask="url(#b)"/>
        <path fill="#0437A0" fill-rule="nonzero" d="M8.522 9.85h.78V.346h-.144a8.762 8.762 0 0 0-3.172.59l.022.069c.011.035.03.165.06.188.03.023.16 0 .198 0h.197l-.16.117c-.03.021-.148.08-.16.116-.013.038.05.152.061.188l.062.188-.159-.116c-.03-.023-.121-.117-.16-.117-.039 0-.129.094-.159.117l-.155.115.062-.19c.012-.035.072-.151.061-.186-.01-.036-.13-.096-.16-.117l-.16-.116h.197c.037 0 .168.02.197 0 .03-.022.05-.154.062-.19l.01-.035a8.853 8.853 0 0 0-4.37 3.778l.016.048c.012.035.03.166.062.189.031.022.158 0 .195 0h.2l-.16.116c-.03.023-.147.08-.16.117-.012.037.05.151.062.187l.062.189-.16-.117c-.03-.023-.122-.116-.16-.116-.036 0-.13.093-.16.116l-.158.117c.02-.064.04-.126.062-.19.01-.035.072-.151.06-.186v-.011A8.804 8.804 0 0 0 .46 7.76a.154.154 0 0 0 .033.072c.03.023.16 0 .198 0h.197a5.267 5.267 0 0 1-.16.115c-.055.037-.148.081-.159.117-.01.035.05.151.06.188.01.037.042.126.062.188l-.159-.117a1.472 1.472 0 0 0-.134-.108 9.194 9.194 0 0 0-.053.957c0 .228.012.454.028.678h8.148zM7.868 1.2c.037 0 .176.022.197 0 .021-.02.05-.153.062-.188l.06-.187.06.187c.012.035.03.166.061.189.032.022.16 0 .198 0h.197l-.16.116c-.03.021-.148.08-.16.117-.013.037.05.151.061.187l.062.188-.16-.116c-.03-.023-.122-.117-.16-.117-.036 0-.13.094-.16.117l-.158.116.056-.197c.01-.036.072-.152.062-.187-.01-.036-.13-.096-.16-.117l-.16-.116.202.009zm0 1.895c.037 0 .176.022.197 0 .021-.023.05-.152.062-.188l.06-.188.06.188c.012.036.03.166.061.188.032.02.16 0 .198 0h.197l-.16.116c-.03.021-.148.08-.16.115-.013.035.05.153.061.189.021.061.04.125.062.187l-.16-.117c-.03-.02-.122-.116-.16-.116-.036 0-.13.095-.16.116l-.158.117c.02-.062.04-.126.061-.187.011-.036.073-.152.062-.19-.01-.036-.13-.093-.16-.114l-.16-.116h.197zm0 1.895c.037 0 .176.023.197 0 .021-.023.05-.153.062-.189l.06-.187.06.187c.012.036.03.166.061.19.032.022.16 0 .198 0h.197l-.16.116c-.03.023-.148.08-.16.116-.013.037.05.152.061.187l.062.19-.16-.117c-.03-.023-.122-.117-.16-.117-.036 0-.13.094-.16.117l-.158.116.056-.197c.01-.036.072-.152.062-.187-.01-.036-.13-.094-.16-.117l-.16-.116.202.008zm0 1.894c.037 0 .176.023.197 0 .021-.023.05-.151.062-.187l.06-.189.06.19c.012.035.03.165.061.186.032.022.16 0 .198 0h.197l-.16.117c-.03.021-.148.08-.16.115-.013.035.05.153.061.189.01.035.04.125.062.187l-.16-.117c-.03-.021-.122-.116-.16-.116-.036 0-.13.095-.16.116l-.158.117c.02-.062.04-.126.061-.187.022-.062.073-.152.062-.19-.01-.036-.13-.093-.16-.114l-.16-.124.197.007zm0 1.896c.037 0 .176.023.197 0 .021-.023.05-.153.062-.189l.06-.187.06.187c.012.036.03.166.061.19.032.022.16 0 .198 0h.197l-.16.114c-.03.023-.148.08-.16.116-.013.038.05.152.061.188l.062.188-.16-.116c-.03-.023-.122-.117-.16-.117-.036 0-.13.094-.16.117l-.158.116.056-.196c.01-.035.072-.151.062-.187-.01-.035-.13-.093-.16-.116l-.16-.115.202.007zM6.752 2.14c.037 0 .166.023.198 0 .031-.023.049-.154.06-.19l.061-.192.06.19c.01.034.03.165.06.188.03.023.16 0 .197 0h.198l-.159.117c-.032.02-.15.079-.16.114-.01.036.05.154.061.19l.062.186-.16-.116c-.03-.021-.122-.117-.159-.117-.037 0-.13.096-.16.117l-.159.116.06-.187c.012-.035.074-.152.062-.189-.013-.037-.129-.093-.16-.114l-.16-.117.198.004zm0 1.895c.037 0 .166.023.198 0 .031-.023.049-.151.06-.187l.061-.189.06.19c.01.035.03.165.06.186.03.022.16 0 .197 0h.198l-.159.115c-.032.023-.15.081-.16.117-.01.035.05.151.061.187l.062.189-.16-.117c-.03-.023-.122-.116-.159-.116-.037 0-.13.093-.16.116l-.159.117.06-.19c.012-.035.074-.15.062-.186-.013-.037-.129-.094-.16-.117l-.16-.115h.198zm0 1.896c.037 0 .166.021.198 0 .031-.021.049-.153.06-.189l.061-.189.06.19c.01.035.03.165.06.188.03.023.16 0 .197 0h.198l-.159.117c-.032.02-.15.08-.16.116-.01.037.05.152.061.187l.062.19-.16-.117c-.03-.023-.122-.117-.159-.117-.037 0-.13.094-.16.117l-.159.116.06-.189c.012-.035.074-.152.062-.187-.013-.035-.129-.095-.16-.116l-.16-.117h.198zm0 1.894c.037 0 .166.023.198 0 .031-.023.049-.152.06-.187l.061-.189.06.19c.01.034.03.165.06.186.03.021.16 0 .197 0h.198l-.159.115c-.032.023-.15.081-.16.116-.01.036.05.152.061.19l.062.186-.16-.116c-.03-.021-.122-.117-.159-.117-.037 0-.13.096-.16.117l-.159.116.06-.187c.012-.037.074-.153.062-.189-.013-.035-.129-.093-.16-.116l-.16-.115h.198zm-4.906 1.06c-.03.022-.148.079-.16.116-.013.037.049.152.061.187l.062.189-.16-.117c-.03-.023-.122-.116-.16-.116-.036 0-.13.093-.16.116l-.158.117c.02-.064.04-.126.062-.189.01-.035.072-.152.06-.187-.013-.035-.13-.094-.16-.117l-.16-.114h.198c.037 0 .166.023.197 0 .032-.023.05-.154.06-.19.021-.061.04-.125.062-.186l.06.187c.012.035.03.166.061.189.032.023.16 0 .196 0h.197l-.158.114zm0-1.895c-.03.021-.148.08-.16.115-.013.035.049.154.061.189.013.035.04.125.062.187l-.16-.116c-.03-.022-.122-.117-.16-.117-.036 0-.13.095-.16.117l-.158.116c.02-.062.04-.125.062-.187.02-.062.072-.152.06-.189-.013-.037-.13-.094-.16-.115l-.16-.113h.198c.037 0 .166.023.197 0 .032-.023.05-.151.06-.187l.062-.189.06.19c.012.035.03.165.061.186.032.022.16 0 .196 0h.197l-.158.113zm3.787-3.903c.037 0 .168.023.197 0 .03-.022.05-.151.062-.187l.06-.189.062.19c.01.035.03.165.06.186.03.022.16 0 .197 0h.197l-.16.117c-.03.021-.148.08-.16.115-.013.035.05.153.061.189.022.061.043.125.062.187l-.159-.117c-.03-.021-.121-.116-.16-.116-.039 0-.129.095-.159.116l-.16.122c.021-.062.04-.125.062-.187.012-.035.072-.152.061-.189-.01-.037-.13-.094-.16-.115l-.16-.116.197-.006zm0 1.896c.037 0 .168.023.197 0 .03-.023.05-.153.062-.189l.06-.187c.021.062.04.126.062.187.02.062.03.166.06.19.03.022.16 0 .197 0h.197l-.16.116c-.03.023-.148.08-.16.116-.013.037.05.152.061.187.022.064.043.126.062.19l-.159-.117c-.03-.023-.121-.117-.16-.117-.039 0-.129.094-.159.117l-.16.116.062-.189c.012-.035.072-.151.061-.187-.01-.035-.13-.093-.16-.116l-.16-.117h.197zm0 1.894c.037 0 .168.023.197 0 .03-.023.05-.151.062-.187l.06-.189.062.19c.01.035.03.165.06.186.03.022.16 0 .197 0h.197l-.16.117c-.03.021-.148.08-.16.115-.013.035.05.153.061.188.011.036.043.126.062.188l-.159-.117c-.03-.021-.121-.116-.16-.116-.039 0-.129.095-.159.116l-.16.117c.021-.062.04-.126.062-.188.02-.061.072-.151.061-.188-.01-.038-.13-.094-.16-.115l-.159-.117h.196zm0 1.896c.037 0 .168.023.197 0 .03-.023.05-.153.062-.189l.06-.187c.021.062.04.125.062.187.01.036.03.166.06.19.03.022.16 0 .197 0h.197l-.16.114c-.03.023-.148.08-.16.116-.013.037.05.152.061.187.022.064.043.126.062.19l-.159-.117c-.03-.023-.121-.117-.16-.117-.039 0-.129.094-.159.117l-.16.116.062-.189c.012-.035.072-.151.061-.187-.01-.035-.13-.093-.16-.116a4.463 4.463 0 0 0-.16-.115h.197zM4.52 2.14c.037 0 .168.023.198 0s.05-.154.06-.19l.061-.192.06.19c.013.034.03.165.062.188.032.023.16 0 .197 0h.198l-.16.117c-.03.02-.149.079-.161.114-.012.036.05.154.062.19l.061.186-.16-.116c-.03-.021-.122-.117-.159-.117-.037 0-.13.096-.16.117l-.159.116c.02-.062.04-.125.062-.187.01-.035.072-.152.06-.189-.012-.037-.129-.093-.159-.114l-.16-.117.197.004zm0 1.895c.037 0 .168.023.198 0s.05-.151.06-.187l.061-.189.06.19c.013.035.03.165.062.186.032.022.16 0 .197 0h.198l-.16.115c-.03.023-.149.081-.161.117-.012.035.05.151.062.187l.061.189-.16-.117c-.03-.023-.122-.116-.159-.116-.037 0-.13.093-.16.116l-.159.117c.02-.064.04-.126.062-.19.01-.035.072-.15.06-.186-.012-.037-.129-.094-.159-.117-.03-.023-.107-.076-.16-.115h.197zm0 1.896c.037 0 .168.021.198 0s.05-.153.06-.189l.061-.189.06.19c.013.035.03.165.062.188.032.023.16 0 .197 0h.198l-.16.117c-.03.02-.149.08-.161.116-.012.037.05.152.062.187l.061.19-.16-.117c-.03-.023-.122-.117-.159-.117-.037 0-.13.094-.16.117l-.159.116.062-.189c.01-.035.072-.152.06-.187-.012-.035-.129-.095-.159-.116l-.16-.117h.197zm0 1.894c.037 0 .168.023.198 0s.05-.152.06-.187l.061-.189.06.19c.013.034.03.165.062.186.032.021.16 0 .197 0h.198l-.16.115c-.03.023-.149.081-.161.116-.012.036.05.152.062.19l.061.186-.16-.116c-.03-.021-.122-.117-.159-.117-.037 0-.13.096-.16.117l-.159.116c.02-.061.04-.125.062-.187.021-.061.072-.153.06-.189-.012-.035-.129-.093-.159-.116-.03-.023-.107-.076-.16-.115h.197zM3.404 3.087c.037 0 .165.023.197 0 .032-.022.05-.151.06-.187l.06-.189.062.19c.01.035.03.165.06.186.03.022.16 0 .197 0h.197l-.158.117c-.032.021-.15.08-.16.115-.011.035.049.153.061.189l.067.192-.159-.117c-.03-.02-.121-.116-.16-.116-.039 0-.129.095-.159.116l-.16.117a7.73 7.73 0 0 0 .062-.187c.012-.035.074-.152.061-.189-.012-.037-.13-.094-.16-.115l-.159-.116.19-.006zm0 1.896c.037 0 .165.023.197 0s.05-.153.06-.189l.06-.187c.021.062.04.126.062.187.02.062.03.166.06.19.03.022.16 0 .197 0h.197L4.08 5.1c-.032.023-.15.08-.16.116-.011.037.049.152.061.187l.06.19-.159-.117c-.03-.023-.121-.117-.16-.117-.039 0-.129.094-.159.117l-.16.116.062-.189c.012-.035.074-.151.061-.187-.012-.035-.13-.093-.16-.116l-.159-.117h.198zm0 1.894c.037 0 .165.023.197 0s.05-.151.06-.187l.06-.189.062.19c.01.035.03.165.06.186.03.022.16 0 .197 0h.197l-.158.117c-.032.021-.15.08-.16.115-.011.035.049.153.061.188l.067.188-.159-.117c-.03-.021-.121-.116-.16-.116-.039 0-.129.095-.159.116l-.16.117a7.73 7.73 0 0 0 .062-.188c.02-.061.074-.151.061-.188-.012-.038-.13-.094-.16-.115l-.159-.117h.19zm-.443 1.06c-.03.022-.148.08-.16.116-.012.035.051.152.062.189.01.037.04.125.061.187l-.158-.117c-.032-.02-.122-.116-.16-.116-.04 0-.13.095-.16.116l-.16.117c.022-.062.041-.125.062-.187.021-.062.072-.154.062-.19-.01-.034-.125-.09-.16-.116l-.16-.114h.195c.037 0 .176.023.197 0 .021-.023.05-.152.062-.187l.06-.19.06.19c.012.035.03.166.061.187.032.02.16 0 .198 0h.197l-.159.114zm0-1.895c-.03.022-.148.08-.16.117-.012.037.051.152.062.187l.061.189-.158-.117c-.032-.023-.122-.116-.16-.116-.04 0-.13.093-.16.116l-.16.117.062-.187c.01-.036.072-.152.062-.187-.01-.036-.13-.096-.16-.117l-.16-.116h.195c.037 0 .176.02.197 0 .021-.022.05-.154.062-.19l.06-.188.06.189c.012.035.03.166.061.189.032.023.16 0 .198 0h.197l-.159.114zm0-1.895c-.03.023-.148.08-.16.116-.012.035.051.152.062.187l.061.19-.158-.117c-.032-.023-.122-.117-.16-.117-.04 0-.13.094-.16.117l-.16.116.062-.189c.01-.035.072-.15.062-.187-.01-.037-.13-.093-.16-.116l-.16-.115h.195c.037 0 .176.023.197 0 .021-.023.05-.152.062-.187l.06-.19.06.19c.012.035.03.166.061.187.032.021.16 0 .198 0h.197l-.159.115zm.404 4.737l-.159-.114h.198c.037 0 .165.023.197 0s.05-.154.06-.19l.06-.186c.021.061.04.125.062.187.01.035.03.166.06.189.03.023.16 0 .197 0h.197l-.158.114c-.032.023-.15.08-.16.117-.011.037.049.152.061.187l.06.189-.159-.117c-.03-.023-.121-.116-.16-.116-.039 0-.129.093-.159.116l-.16.117.062-.189c.012-.035.074-.152.061-.187-.012-.035-.13-.09-.16-.113v-.004z" mask="url(#b)"/>
        <path fill="#F4F4F4" d="M1.293 5.215c.012.035-.05.151-.06.187-.022.063-.043.125-.062.189l.159-.117c.03-.023.121-.116.16-.116.039 0 .129.093.159.116l.16.117-.062-.19c-.012-.035-.074-.151-.061-.186.012-.036.13-.094.16-.117l.158-.116h-.197c-.037 0-.166.022-.196 0-.03-.023-.049-.154-.061-.19l-.016-.047c-.086.15-.176.304-.247.457.002.005.006.009.006.013zM5.894 1.005c-.012.035-.03.165-.062.188-.031.023-.16 0-.197 0h-.198l.16.117c.03.021.149.08.161.116.013.038-.05.152-.061.188l-.064.187.16-.117c.03-.023.122-.116.16-.116.036 0 .13.093.16.116l.158.117c-.02-.064-.04-.126-.062-.19-.01-.035-.072-.151-.061-.186.01-.036.13-.096.16-.117l.16-.116h-.195c-.037 0-.176.02-.198 0-.02-.022-.049-.154-.06-.19l-.03-.066-.088.033-.003.036zM.533 8.316l.159.116a7.73 7.73 0 0 0-.062-.187c-.021-.061-.072-.153-.06-.189.012-.035.129-.093.159-.116.03-.023.107-.076.16-.115h-.19c-.037 0-.168.023-.198 0a.154.154 0 0 1-.04-.065 8.102 8.102 0 0 0-.062.448c.047.034.091.07.134.108zM7.991 7.109c.01.037-.051.153-.062.188-.01.036-.04.126-.061.188l.158-.117c.03-.021.124-.116.16-.116.038 0 .13.095.16.116l.16.117c-.021-.062-.04-.126-.062-.188-.021-.061-.072-.151-.062-.188.01-.038.13-.094.16-.115l.161-.117h-.197c-.037 0-.168.023-.198 0s-.049-.151-.061-.187l-.06-.189-.06.19c-.013.035-.032.165-.062.186-.03.022-.16 0-.197 0H7.67l.16.117c.03.021.149.08.161.115zM4.64 6.171c.013.036-.048.152-.059.187l-.062.19.159-.117c.03-.023.122-.117.16-.117.04 0 .129.094.159.117l.16.116-.053-.2c-.012-.035-.074-.151-.061-.186.012-.036.13-.096.16-.117l.16-.116h-.206c-.037 0-.167.02-.197 0-.03-.022-.05-.154-.062-.19l-.06-.188-.061.189c-.01.035-.03.166-.06.189-.03.023-.16 0-.198 0h-.197l.16.116c.03.023.148.081.159.127zM4.64 8.056c.013.036-.048.152-.059.19-.01.036-.042.125-.062.186l.159-.116c.03-.021.122-.117.16-.117.04 0 .129.096.159.117l.16.116-.061-.187c-.022-.061-.074-.153-.062-.189.012-.035.13-.093.16-.116l.16-.115h-.197c-.037 0-.167.023-.197 0s-.05-.152-.062-.187l-.06-.189-.061.19c-.01.034-.03.165-.06.186-.03.021-.16 0-.198 0h-.197c.053.04.106.078.16.115.055.037.148.081.159.116zM5.758 9.004c.01.036-.05.152-.061.187l-.064.19.16-.117c.03-.023.122-.117.16-.117.036 0 .13.094.16.117l.158.116-.062-.189c-.01-.035-.072-.151-.061-.187.01-.035.13-.093.16-.116l.16-.115h-.195c-.037 0-.176.023-.198 0-.02-.023-.049-.153-.06-.189l-.061-.187-.06.187c-.012.036-.03.166-.062.19-.031.022-.16 0-.197 0h-.198c.055.036.108.075.16.114.054.039.149.08.161.116zM4.64 4.267c.013.037-.048.151-.059.187l-.062.189.159-.117c.03-.023.122-.116.16-.116.04 0 .129.093.159.116l.16.117-.053-.19c-.012-.035-.074-.15-.061-.186.012-.037.13-.094.16-.117l.16-.115h-.206c-.037 0-.167.023-.197 0s-.05-.151-.062-.187l-.06-.189-.061.19c-.01.035-.03.165-.06.186-.03.022-.16 0-.198 0h-.197c.053.04.106.078.16.115.055.037.148.08.159.117zM4.64 2.37c.013.038-.048.154-.059.19a7.73 7.73 0 0 0-.062.187l.159-.117c.03-.02.122-.116.16-.116.04 0 .129.095.159.116l.16.117c-.02-.062-.04-.126-.061-.187-.013-.036-.074-.152-.062-.19.012-.036.13-.093.16-.114l.16-.116h-.197c-.037 0-.167.023-.197 0s-.05-.154-.062-.19l-.06-.188-.061.19c-.01.036-.03.166-.06.19-.03.022-.16 0-.198 0h-.197l.16.116c.03.02.148.078.159.113zM3.518 5.215c.013.035-.049.151-.061.187l-.062.189.16-.117c.03-.023.122-.116.159-.116.037 0 .13.093.16.116l.159.117-.06-.19c-.012-.035-.074-.151-.062-.186.013-.036.129-.094.16-.117l.16-.116h-.184c-.037 0-.166.022-.197 0-.032-.023-.05-.154-.06-.19a7.296 7.296 0 0 0-.062-.186l-.06.187c-.01.035-.03.166-.06.189-.03.022-.16 0-.197 0h-.205l.159.116c.03.023.153.08.153.117zM3.518 3.319c.013.037-.049.153-.061.189a7.73 7.73 0 0 1-.062.187l.16-.117c.03-.021.122-.116.159-.116.037 0 .13.095.16.116l.173.122-.06-.187c-.012-.035-.074-.152-.062-.189.013-.037.13-.094.16-.115l.16-.116h-.198c-.037 0-.166.023-.197 0-.032-.023-.05-.152-.06-.187l-.062-.19-.06.19c-.01.035-.03.166-.06.187-.03.021-.16 0-.197 0h-.205l.159.116c.03.016.153.074.153.11zM3.402 9.38l.16-.116c.03-.023.122-.117.159-.117.037 0 .13.094.16.117l.159.116-.06-.189c-.012-.035-.074-.151-.062-.187.013-.035.129-.093.16-.116l.16-.115h-.191c-.037 0-.166.023-.197 0-.032-.023-.05-.153-.06-.189-.021-.062-.04-.125-.062-.187l-.06.187c-.01.036-.03.166-.06.19-.03.022-.16 0-.197 0h-.205l.159.114c.03.023.148.08.16.116.013.037-.049.152-.061.187-.02.064-.04.126-.062.19zM2.727 4.035c-.032-.02-.05-.151-.062-.187l-.06-.189c-.019.064-.04.126-.06.19-.012.035-.03.165-.061.186-.032.022-.16 0-.198 0H2.09l.16.115c.03.023.148.081.16.117.013.035-.05.151-.06.187l-.064.189.16-.117c.03-.023.12-.116.159-.116.038 0 .128.093.16.116l.159.117-.062-.19c-.01-.035-.072-.15-.062-.186.01-.037.13-.094.16-.117l.161-.115h-.196c-.037 0-.167.018-.197 0zM2.727 7.825c-.032-.021-.05-.152-.062-.187l-.06-.189-.06.19c-.012.034-.03.165-.061.186-.032.021-.16 0-.198 0H2.09l.16.115c.03.023.148.081.16.116.013.036-.05.152-.06.19-.011.036-.041.125-.063.186l.16-.116c.03-.021.12-.117.16-.117.038 0 .128.096.16.117l.158.116-.061-.187c-.021-.061-.073-.153-.062-.189.01-.035.13-.093.16-.116l.16-.115h-.197c-.037 0-.167.023-.197 0zM3.518 7.109c.013.037-.049.153-.061.188-.013.036-.04.126-.062.188l.16-.117c.03-.021.122-.116.159-.116.037 0 .13.095.16.116l.159.117-.06-.188c-.012-.035-.074-.151-.062-.188.013-.038.129-.094.16-.115l.16-.117h-.184c-.037 0-.166.023-.197 0-.032-.023-.05-.151-.06-.187l-.062-.189-.06.19c-.01.035-.03.165-.06.186-.03.022-.16 0-.197 0h-.205l.159.117c.03.021.153.08.153.115zM2.727 5.931c-.032-.023-.05-.153-.062-.189l-.06-.189c-.019.064-.04.126-.06.19-.012.035-.03.165-.061.188-.032.023-.16 0-.198 0H2.09l.16.117c.03.02.148.08.16.116.013.037-.05.152-.06.187l-.064.187c.053-.038.105-.079.16-.116.055-.037.12-.117.159-.117.038 0 .128.094.16.117l.159.116-.06-.19c-.01-.036-.073-.152-.062-.187.01-.036.13-.096.16-.117l.16-.116h-.197c-.037.003-.167.024-.197.003zM1.611 8.773c-.031-.023-.049-.153-.061-.189l-.06-.187c-.021.062-.04.125-.062.187-.01.036-.03.166-.06.19-.03.022-.16 0-.197 0H.974l.16.114c.03.023.148.08.159.116.01.037-.05.152-.06.187-.022.064-.043.126-.062.19l.159-.117c.03-.023.121-.117.16-.117.039 0 .129.094.159.117l.16.116-.062-.189c-.012-.035-.074-.151-.061-.187.012-.035.13-.093.16-.116l.158-.115h-.197c-.037 0-.166.023-.196 0zM6.867 2.37c.012.038-.05.154-.062.19l-.06.187.159-.117c.03-.02.121-.116.16-.116.039 0 .129.095.159.116l.16.117a7.73 7.73 0 0 1-.062-.187c-.012-.036-.074-.152-.061-.19.012-.036.128-.093.16-.114l.159-.116h-.184c-.037 0-.165.023-.197 0s-.05-.154-.06-.19a7.792 7.792 0 0 1-.06-.188l-.069.19c-.01.036-.03.166-.06.19-.03.022-.16 0-.197 0h-.197l.158.116c.032.02.154.078.154.113zM7.991 9.004c.01.036-.051.152-.062.187l-.061.19.158-.117c.03-.023.124-.117.16-.117.038 0 .13.094.16.117l.16.116-.053-.189c-.01-.035-.072-.151-.062-.187.01-.035.13-.093.16-.116l.16-.115h-.205c-.037 0-.168.023-.198 0s-.049-.153-.061-.189l-.06-.187-.06.187c-.013.036-.032.166-.062.19-.03.022-.16 0-.197 0H7.67l.16.114c.03.023.149.08.161.116zM6.867 4.267c.012.037-.05.151-.062.187l-.06.189.159-.117c.03-.023.121-.116.16-.116.039 0 .129.093.159.116l.16.117-.062-.19c-.012-.035-.074-.15-.061-.186.012-.037.128-.094.16-.117l.159-.115h-.184c-.037 0-.165.023-.197 0s-.05-.151-.06-.187a7.792 7.792 0 0 1-.06-.189l-.061.19c-.011.035-.03.165-.06.186-.03.022-.16 0-.198 0h-.204l.158.115c.032.023.154.08.154.117zM7.991 5.215c.01.035-.051.151-.062.187l-.061.189.158-.117c.03-.023.124-.116.16-.116.038 0 .13.093.16.116l.16.117-.053-.19c-.01-.035-.072-.151-.062-.186.01-.036.13-.094.16-.117l.16-.116h-.205c-.037 0-.168.022-.198 0-.03-.023-.049-.154-.061-.19l-.06-.186-.06.187c-.013.035-.032.166-.062.189-.03.022-.16 0-.197 0H7.67l.16.116c.03.023.149.08.161.117zM7.991 3.319c.01.037-.051.153-.062.189l-.061.187.158-.117c.03-.021.124-.116.16-.116.038 0 .13.095.16.116l.16.117c-.021-.062-.04-.126-.062-.187-.01-.036-.072-.152-.062-.19.01-.036.13-.093.16-.114l.161-.117h-.197c-.037 0-.168.023-.198 0-.03-.022-.049-.151-.061-.187l-.06-.189-.06.19c-.013.035-.032.165-.062.186-.03.022-.16 0-.197 0H7.67l.16.117c.03.021.149.08.161.115zM6.867 6.171c.012.036-.05.152-.062.187l-.06.19.159-.117c.03-.023.121-.117.16-.117.039 0 .129.094.159.117l.16.116-.062-.189c-.012-.035-.074-.151-.061-.187.012-.035.128-.095.16-.116l.159-.117h-.184c-.037 0-.165.021-.197 0-.032-.02-.05-.153-.06-.189a7.792 7.792 0 0 1-.06-.188l-.061.188c-.011.036-.03.166-.06.19-.03.022-.16 0-.198 0h-.204l.158.116c.032.012.154.07.154.116zM5.758 3.319c.01.037-.05.153-.061.189-.022.061-.041.125-.062.187l.16-.117c.03-.021.122-.116.159-.116.037 0 .13.095.16.116l.159.117a7.73 7.73 0 0 0-.062-.187c-.01-.036-.072-.152-.062-.19.011-.036.13-.093.16-.114l.161-.117h-.197c-.037 0-.176.023-.198 0-.02-.022-.049-.151-.06-.187l-.061-.189-.06.19c-.012.035-.03.165-.062.186-.031.022-.16 0-.197 0h-.198l.16.117c.036.021.149.08.161.115zM6.867 8.056c.012.036-.05.152-.062.19l-.06.186.159-.116c.03-.021.121-.117.16-.117.039 0 .129.096.159.117l.16.116a7.73 7.73 0 0 1-.062-.187c-.019-.061-.074-.153-.061-.189.012-.035.128-.093.16-.116l.159-.115h-.184c-.037 0-.165.023-.197 0s-.05-.152-.06-.187l-.06-.189-.061.19c-.011.034-.03.165-.06.186-.03.021-.16 0-.198 0h-.204l.158.115c.032.023.154.081.154.116zM5.758 7.109c.01.037-.05.153-.061.188-.013.036-.041.126-.062.188l.16-.117c.03-.021.122-.116.159-.116.037 0 .13.095.16.116l.159.117a7.73 7.73 0 0 0-.062-.188c-.021-.061-.072-.151-.062-.188.011-.038.13-.094.16-.115l.161-.117h-.197c-.037 0-.176.023-.198 0-.02-.023-.049-.151-.06-.187l-.061-.189-.06.19c-.012.035-.03.165-.062.186-.031.022-.16 0-.197 0h-.198l.16.117c.036.021.149.08.161.115zM5.758 5.215c.01.035-.05.151-.061.187l-.064.189.16-.117c.03-.023.122-.116.16-.116.036 0 .13.093.16.116l.158.117c-.02-.064-.04-.126-.062-.19-.01-.035-.072-.151-.061-.186.01-.036.13-.094.16-.117l.16-.116h-.195c-.037 0-.176.022-.198 0-.02-.023-.049-.154-.06-.19a7.296 7.296 0 0 0-.061-.186l-.06.187c-.012.035-.03.166-.062.189-.031.022-.16 0-.197 0h-.198l.16.116c.036.023.149.08.161.117zM1.611 6.877c-.031-.02-.049-.151-.061-.187l-.06-.189-.062.19c-.01.035-.03.165-.06.186-.03.022-.16 0-.197 0H.974l.16.117c.03.021.148.08.159.115.01.035-.05.153-.06.188-.011.036-.043.126-.062.188l.159-.117c.03-.021.121-.116.16-.116.039 0 .129.095.159.116l.16.117a7.73 7.73 0 0 1-.062-.188c-.02-.061-.074-.151-.061-.188.012-.038.13-.094.16-.115l.158-.117h-.197c-.037 0-.166.023-.196 0zM7.991 1.425c.01.035-.051.151-.062.187l-.061.189.158-.117c.03-.023.124-.116.16-.116.038 0 .13.093.16.116l.16.117-.053-.19c-.01-.035-.072-.151-.062-.186.01-.036.13-.096.16-.117l.16-.116h-.205c-.037 0-.168.02-.198 0-.03-.022-.049-.154-.061-.19l-.06-.186-.06.187c-.013.035-.032.166-.062.189-.03.023-.16 0-.197 0H7.67l.16.116c.03.021.149.08.161.117z" mask="url(#b)"/>
    </g>
</svg>
