<svg xmlns="http://www.w3.org/2000/svg" width="20" height="20" viewBox="0 0 20 20">
    <g fill="none" fill-rule="evenodd">
        <path fill="#07BEAA" d="M19.9 9.95c0 5.496-4.454 9.95-9.95 9.95C4.455 19.9 0 15.446 0 9.95 0 4.455 4.455 0 9.95 0c5.496 0 9.95 4.455 9.95 9.95"/>
        <path fill="#FFF" fill-rule="nonzero" d="M15.968 5.594l-.065-.034a11.825 11.825 0 0 0-4.638-1.49 9.806 9.806 0 0 0-.973-.065C8.12 3.94 5.978 4.491 4.065 5.56 4 5.626 4 5.594 4 5.69c0 .51.033 1.02.097 1.525.063.503.16 1.001.292 1.49a12.018 12.018 0 0 0 5.546 7.263L10 16l.13-.065a12.009 12.009 0 0 0 4.865-5.446c.357-.81.649-1.686.81-2.593.065-.42.13-.843.162-1.265C16 6.34 16 6.048 16 5.756v-.098c0-.032 0-.064-.032-.064zM4.778 8.447a6.927 6.927 0 0 1-.195-1.135c-.032-.42-.065-.843-.065-1.264v-.065a10.951 10.951 0 0 1 5.643-1.46c.551.033 1.07.066 1.59.163.033.032 0 .032 0 .032l-.16.065A3.041 3.041 0 0 0 9.775 7.02c-.033.162-.065.324-.065.486a2.943 2.943 0 0 1-.1.746 2.515 2.515 0 0 1-1.362 1.62A2.552 2.552 0 0 1 4.842 8.64c-.031-.064-.064-.129-.064-.193zm7.524 5.09c-.064.064-.097.161-.13.226a.447.447 0 0 1-.097.13 12.925 12.925 0 0 1-2.01 1.491l-.065.033a2.546 2.546 0 0 1-.584-.357 10.982 10.982 0 0 1-3.146-3.21 12.368 12.368 0 0 1-.94-1.848c-.033-.033-.033-.033-.033-.065l.065.033a2.879 2.879 0 0 0 1.557.617 2.993 2.993 0 0 0 1.816-.39c.325-.162.649-.292.973-.324 1.233-.13 2.401.616 2.757 1.815.195.616.13 1.265-.162 1.848zm3.147-7.49c0 .292 0 .616-.032.908a10.826 10.826 0 0 1-1.72 4.928c-.194.324-.421.616-.648.908-.032.032-.032.064-.065.064.033-.097.033-.194.065-.291.065-1.135-.519-2.172-1.46-2.756l-.13-.065a2.57 2.57 0 0 1-1.167-1.718 2.26 2.26 0 0 1 .065-1.232c.42-1.329 1.881-2.075 3.212-1.653.356.097.713.26 1.07.42.227.13.487.26.713.39l.098.032v.066z"/>
    </g>
</svg>
