<svg xmlns="http://www.w3.org/2000/svg" width="23" height="23" viewBox="0 0 23 23">
    <g fill="none" fill-rule="evenodd">
        <path fill="#07BEAA" d="M22.296 11.148c0 6.157-4.991 11.148-11.148 11.148S0 17.305 0 11.148 4.991 0 11.148 0s11.148 4.991 11.148 11.148"/>
        <path fill="#FFF" fill-rule="nonzero" d="M17.89 6.267l-.073-.038a13.249 13.249 0 0 0-5.196-1.67 10.987 10.987 0 0 0-1.09-.072c-2.435-.073-4.833.545-6.977 1.742-.073.074-.073.038-.073.147 0 .57.037 1.14.11 1.707.07.564.18 1.122.326 1.67a13.465 13.465 0 0 0 6.214 8.137l.073.036.145-.073a13.454 13.454 0 0 0 5.45-6.102c.4-.907.728-1.888.909-2.905.073-.47.145-.945.181-1.417.037-.326.037-.653.037-.98v-.11c0-.036 0-.072-.036-.072zM5.353 9.463a7.76 7.76 0 0 1-.218-1.271c-.036-.47-.073-.944-.073-1.416v-.073a12.27 12.27 0 0 1 6.322-1.635c.618.037 1.2.073 1.782.182.037.036 0 .036 0 .036l-.18.073a3.407 3.407 0 0 0-2.035 2.506c-.036.182-.073.363-.073.545a3.297 3.297 0 0 1-.111.835A2.818 2.818 0 0 1 9.24 11.06a2.859 2.859 0 0 1-3.816-1.38c-.035-.071-.072-.144-.072-.217zm8.43 5.702c-.072.073-.109.182-.145.255a.501.501 0 0 1-.109.145 14.481 14.481 0 0 1-2.253 1.67l-.072.037a2.853 2.853 0 0 1-.654-.4 12.304 12.304 0 0 1-3.525-3.596 13.857 13.857 0 0 1-1.054-2.07c-.036-.037-.036-.037-.036-.073l.072.037a3.225 3.225 0 0 0 1.744.691c.708.074 1.421-.079 2.036-.436.363-.182.727-.327 1.09-.364 1.38-.145 2.69.69 3.089 2.034.218.69.145 1.417-.182 2.07zm3.526-8.39c0 .328 0 .69-.037 1.018a12.13 12.13 0 0 1-1.925 5.52c-.218.363-.473.69-.727 1.017-.036.037-.036.073-.073.073.037-.11.037-.218.073-.327.072-1.271-.582-2.434-1.635-3.087l-.146-.073a2.88 2.88 0 0 1-1.308-1.925 2.531 2.531 0 0 1 .073-1.38c.47-1.49 2.107-2.325 3.598-1.853.4.11.8.291 1.2.471.253.145.544.29.798.437l.11.036-.001.074z"/>
    </g>
</svg>
